<svg width="128" height="112" viewBox="0 0 128 112" fill="none" xmlns="http://www.w3.org/2000/svg">
<g clip-path="url(#clip0_34_13)">
<rect width="128" height="112" rx="20" fill="#BDEFFF"/>
<path d="M16.016 0C11.7725 0 7.70286 1.68571 4.70228 4.68629C1.7017 7.68687 0.0159912 11.7565 0.0159912 16V96C0.0159912 100.243 1.7017 104.313 4.70228 107.314C7.70286 110.314 11.7725 112 16.016 112H112.016C116.259 112 120.329 110.314 123.33 107.314C126.33 104.313 128.016 100.243 128.016 96V16C128.016 11.7565 126.33 7.68687 123.33 4.68629C120.329 1.68571 116.259 0 112.016 0H16.016V0ZM112.016 8C114.138 8 116.173 8.84285 117.673 10.3431C119.173 11.8434 120.016 13.8783 120.016 16V68L89.8 52.424C89.0498 52.0482 88.2004 51.9178 87.372 52.0513C86.5436 52.1849 85.7781 52.5755 85.184 53.168L55.504 82.848L34.224 68.672C33.4557 68.1605 32.5341 67.9304 31.6155 68.0208C30.6969 68.1112 29.8379 68.5165 29.184 69.168L8.01599 88V16C8.01599 13.8783 8.85885 11.8434 10.3591 10.3431C11.8594 8.84285 13.8943 8 16.016 8H112.016Z" fill="#009165"/>
<path d="M48.016 36C48.016 39.1826 46.7517 42.2348 44.5013 44.4853C42.2508 46.7357 39.1986 48 36.016 48C32.8334 48 29.7811 46.7357 27.5307 44.4853C25.2803 42.2348 24.016 39.1826 24.016 36C24.016 32.8174 25.2803 29.7652 27.5307 27.5147C29.7811 25.2643 32.8334 24 36.016 24C39.1986 24 42.2508 25.2643 44.5013 27.5147C46.7517 29.7652 48.016 32.8174 48.016 36V36Z" fill="#FFC700"/>
</g>
<g clip-path="url(#clip1_34_13)">
<path d="M103.141 5.92182C102.549 5.33011 101.746 4.99771 100.909 4.99771C100.072 4.99771 99.2698 5.33011 98.6779 5.92182L88.2812 16.3185L111.682 39.7189L122.078 29.3286C122.372 29.0354 122.605 28.6871 122.765 28.3036C122.924 27.9202 123.006 27.5091 123.006 27.0939C123.006 26.6788 122.924 26.2677 122.765 25.8843C122.605 25.5008 122.372 25.1525 122.078 24.8593L103.141 5.92182ZM107.219 44.1819L83.8183 20.7814L42.787 61.8127H44.0937C44.9308 61.8127 45.7336 62.1452 46.3255 62.7371C46.9174 63.329 47.2499 64.1319 47.2499 64.9689V68.1252H50.4062C51.2433 68.1252 52.0461 68.4577 52.638 69.0496C53.2299 69.6415 53.5624 70.4444 53.5624 71.2814V74.4377H56.7187C57.5558 74.4377 58.3586 74.7702 58.9505 75.3621C59.5424 75.954 59.8749 76.7569 59.8749 77.5939V80.7502H63.0312C63.8683 80.7502 64.6711 81.0827 65.263 81.6746C65.8549 82.2665 66.1874 83.0694 66.1874 83.9064V85.2131L107.219 44.1819ZM60.0769 91.3236C59.9441 90.9704 59.8757 90.5963 59.8749 90.2189V87.0627H56.7187C55.8816 87.0627 55.0788 86.7302 54.4869 86.1382C53.895 85.5463 53.5624 84.7435 53.5624 83.9064V80.7502H50.4062C49.5691 80.7502 48.7663 80.4177 48.1744 79.8257C47.5825 79.2338 47.2499 78.431 47.2499 77.5939V74.4377H44.0937C43.2566 74.4377 42.4538 74.1052 41.8619 73.5132C41.27 72.9213 40.9374 72.1185 40.9374 71.2814V68.1252H37.7812C37.4038 68.1246 37.0297 68.0562 36.6765 67.9232L35.5466 69.0468C35.2458 69.3497 35.0095 69.7105 34.8522 70.1073L22.2272 101.67C21.9976 102.243 21.9414 102.872 22.0655 103.477C22.1897 104.082 22.4887 104.638 22.9256 105.075C23.3625 105.511 23.9179 105.81 24.5232 105.935C25.1284 106.059 25.7567 106.003 26.3303 105.773L57.8928 93.1479C58.2896 92.9906 58.6504 92.7544 58.9533 92.4536L60.0769 91.3299V91.3236Z" fill="#424242"/>
<path d="M111.704 40.2171L87.7829 16.296L98.4145 5.66447L98.4145 5.66446C101.072 4.33552 101.072 4.33552 103.066 5.66449L123 24.9342C124.063 27.5921 122.336 29.807 121.671 30.25L111.704 40.2171Z" fill="white"/>
</g>
<path d="M34.625 70.1184L22 102.013C22 106.266 25.5439 106 27.3158 105.336L59.2105 92.7105L59.875 91.3816V86.7303C54.0276 88.325 53.0088 82.9649 53.2303 80.0855C46.8513 82.2118 46.5855 76.9846 47.25 74.1053C41.4026 76.2316 40.3838 71.0044 40.6053 68.125H36.6184L34.625 70.1184Z" fill="#DDFF7D" stroke="#DDFF7D"/>
<defs>
<clipPath id="clip0_34_13">
<rect width="128" height="112" rx="20" fill="white"/>
</clipPath>
<clipPath id="clip1_34_13">
<rect width="101" height="101" fill="white" transform="translate(22 5)"/>
</clipPath>
</defs>
</svg>
